<svg width="45" height="56" viewBox="0 0 45 56" fill="none" xmlns="http://www.w3.org/2000/svg">
<path d="M33.5144 0.0280244C33.3967 -0.104975 29.1564 0.0805242 25.4663 4.13C21.7763 8.17598 22.344 12.817 22.4271 12.936C22.5102 13.055 27.6887 13.2405 30.9944 8.53298C34.3002 3.8255 33.6321 0.164524 33.5144 0.0280244ZM44.986 41.0933C44.8199 40.7573 36.9379 36.7743 37.6718 29.1164C38.4056 21.4549 43.4698 19.3549 43.5495 19.1274C43.6291 18.8999 41.4829 16.3624 39.2087 15.0779C37.5389 14.1723 35.6908 13.6535 33.7983 13.559C33.4244 13.5485 32.1264 13.2265 29.4575 13.965C27.699 14.4515 23.7356 16.0264 22.6452 16.0894C21.5513 16.1524 18.2975 14.2625 14.7979 13.762C12.5582 13.3245 10.1836 14.2205 8.48399 14.9099C6.78784 15.5959 3.56168 17.5489 1.30475 22.7394C-0.952182 27.9264 0.228205 36.1443 1.07282 38.6993C1.91744 41.2508 3.23629 45.4333 5.47937 48.4853C7.47322 51.9293 10.1178 54.3197 11.2221 55.1317C12.3263 55.9437 15.4417 56.4827 17.6017 55.3662C19.3394 54.2882 22.4756 53.6687 23.7148 53.7142C24.9506 53.7597 27.3875 54.2532 29.8833 55.6007C31.8598 56.2902 33.7291 56.0032 35.6018 55.2332C37.4744 54.4597 40.1848 51.5268 43.3487 45.5803C44.5499 42.8153 45.0968 41.3208 44.986 41.0933Z" fill="white"/>
</svg>
